<svg xmlns="http://www.w3.org/2000/svg">
  <symbol id="layout-dashboard" viewBox="0 0 24 24" fill="none" stroke="currentColor" stroke-width="2" stroke-linecap="round" stroke-linejoin="round">
    <rect width="7" height="9" x="3" y="3" rx="1"/><rect width="7" height="5" x="14" y="3" rx="1"/><rect width="7" height="9" x="14" y="12" rx="1"/><rect width="7" height="5" x="3" y="16" rx="1"/>
  </symbol>
  <symbol id="bot" viewBox="0 0 24 24" fill="none" stroke="currentColor" stroke-width="2" stroke-linecap="round" stroke-linejoin="round">
    <path d="M12 8V4H8"/><rect width="16" height="12" x="4" y="8" rx="2"/><path d="M2 14h2M20 14h2M15 13v2M9 13v2"/>
  </symbol>
  <symbol id="credit-card" viewBox="0 0 24 24" fill="none" stroke="currentColor" stroke-width="2" stroke-linecap="round" stroke-linejoin="round">
    <rect width="20" height="14" x="2" y="5" rx="2"/><path d="M2 10h20"/>
  </symbol>
  <symbol id="arrow-left-right" viewBox="0 0 24 24" fill="none" stroke="currentColor" stroke-width="2" stroke-linecap="round" stroke-linejoin="round">
    <path d="M8 3 4 7l4 4M4 7h16M16 21l4-4-4-4M20 17H4"/>
  </symbol>
  <symbol id="file-check" viewBox="0 0 24 24" fill="none" stroke="currentColor" stroke-width="2" stroke-linecap="round" stroke-linejoin="round">
    <path d="M14.5 2H6a2 2 0 0 0-2 2v16a2 2 0 0 0 2 2h12a2 2 0 0 0 2-2V7.5L14.5 2z"/><polyline points="14 2 14 8 20 8"/><path d="m9 15 2 2 4-4"/>
  </symbol>
  <symbol id="shield-check" viewBox="0 0 24 24" fill="none" stroke="currentColor" stroke-width="2" stroke-linecap="round" stroke-linejoin="round">
    <path d="M20 13c0 5-3.5 7.5-8 9-4.5-1.5-8-4-8-9V5l8-3 8 3v8z"/><path d="m9 12 2 2 4-4"/>
  </symbol>
  <symbol id="code" viewBox="0 0 24 24" fill="none" stroke="currentColor" stroke-width="2" stroke-linecap="round" stroke-linejoin="round">
    <polyline points="16 18 22 12 16 6"/><polyline points="8 6 2 12 8 18"/>
  </symbol>
  <symbol id="menu" viewBox="0 0 24 24" fill="none" stroke="currentColor" stroke-width="2" stroke-linecap="round" stroke-linejoin="round">
    <path d="M4 12h16M4 6h16M4 18h16"/>
  </symbol>
  <symbol id="x" viewBox="0 0 24 24" fill="none" stroke="currentColor" stroke-width="2" stroke-linecap="round" stroke-linejoin="round">
    <path d="M18 6 6 18M6 6l12 12"/>
  </symbol>
  <symbol id="play" viewBox="0 0 24 24" fill="none" stroke="currentColor" stroke-width="2" stroke-linecap="round" stroke-linejoin="round">
    <circle cx="12" cy="12" r="10"/><polygon points="10 8 16 12 10 16 10 8"/>
  </symbol>
  <symbol id="plus" viewBox="0 0 24 24" fill="none" stroke="currentColor" stroke-width="2" stroke-linecap="round" stroke-linejoin="round">
    <path d="M5 12h14M12 5v14"/>
  </symbol>
  <symbol id="link" viewBox="0 0 24 24" fill="none" stroke="currentColor" stroke-width="2" stroke-linecap="round" stroke-linejoin="round">
    <path d="M10 13a5 5 0 0 0 7.54.54l3-3a5 5 0 0 0-7.07-7.07l-1.72 1.71"/><path d="M14 11a5 5 0 0 0-7.54-.54l-3 3a5 5 0 0 0 7.07 7.07l1.71-1.71"/>
  </symbol>
  <symbol id="copy" viewBox="0 0 24 24" fill="none" stroke="currentColor" stroke-width="2" stroke-linecap="round" stroke-linejoin="round">
    <rect width="14" height="14" x="8" y="8" rx="2"/><path d="M4 16c-1.1 0-2-.9-2-2V4c0-1.1.9-2 2-2h10c1.1 0 2 .9 2 2"/>
  </symbol>
  <symbol id="refresh" viewBox="0 0 24 24" fill="none" stroke="currentColor" stroke-width="2" stroke-linecap="round" stroke-linejoin="round">
    <path d="M20 6v6h-6M4 18v-6h6"/><path d="M18.49 9A7 7 0 0 0 5.64 6.64L4 9m16 6-1.64 2.36A7 7 0 0 1 5.51 15"/>
  </symbol>
  <symbol id="rotate-ccw" viewBox="0 0 24 24" fill="none" stroke="currentColor" stroke-width="2" stroke-linecap="round" stroke-linejoin="round">
    <path d="M3 12a9 9 0 1 0 3-6.7L3 8"/><path d="M3 3v5h5"/>
  </symbol>
  <symbol id="external-link" viewBox="0 0 24 24" fill="none" stroke="currentColor" stroke-width="2" stroke-linecap="round" stroke-linejoin="round">
    <path d="M15 3h6v6M10 14 21 3M18 13v6a2 2 0 0 1-2 2H5a2 2 0 0 1-2-2V8a2 2 0 0 1 2-2h6"/>
  </symbol>
  <symbol id="chevron-right" viewBox="0 0 24 24" fill="none" stroke="currentColor" stroke-width="2" stroke-linecap="round" stroke-linejoin="round">
    <path d="m9 18 6-6-6-6"/>
  </symbol>
  <symbol id="check" viewBox="0 0 24 24" fill="none" stroke="currentColor" stroke-width="2" stroke-linecap="round" stroke-linejoin="round">
    <path d="m9 11 3 3L22 4"/><path d="M21 12v7a2 2 0 0 1-2 2H5a2 2 0 0 1-2-2V5a2 2 0 0 1 2-2h11"/>
  </symbol>
  <symbol id="activity" viewBox="0 0 24 24" fill="none" stroke="currentColor" stroke-width="2" stroke-linecap="round" stroke-linejoin="round">
    <path d="M22 12h-4l-3 9L9 3l-3 9H2"/>
  </symbol>
  <symbol id="book-open" viewBox="0 0 24 24" fill="none" stroke="currentColor" stroke-width="2" stroke-linecap="round" stroke-linejoin="round">
    <path d="M2 3h6a4 4 0 0 1 4 4v14a3 3 0 0 0-3-3H2zM22 3h-6a4 4 0 0 0-4 4v14a3 3 0 0 1 3-3h7z"/>
  </symbol>
  <symbol id="server" viewBox="0 0 24 24" fill="none" stroke="currentColor" stroke-width="2" stroke-linecap="round" stroke-linejoin="round">
    <rect width="20" height="8" x="2" y="2" rx="2"/><rect width="20" height="8" x="2" y="14" rx="2"/><path d="M6 6h.01M6 18h.01"/>
  </symbol>
</svg>
